<?xml version="1.0" encoding="UTF-8" standalone="no"?>
<!-- Created with Inkscape (http://www.inkscape.org/) -->

<svg
   xmlns:dc="http://purl.org/dc/elements/1.1/"
   xmlns:cc="http://creativecommons.org/ns#"
   xmlns:rdf="http://www.w3.org/1999/02/22-rdf-syntax-ns#"
   xmlns:svg="http://www.w3.org/2000/svg"
   xmlns="http://www.w3.org/2000/svg"
   xmlns:sodipodi="http://sodipodi.sourceforge.net/DTD/sodipodi-0.dtd"
   xmlns:inkscape="http://www.inkscape.org/namespaces/inkscape"
   width="900"
   height="250"
   viewBox="0 0 238.125 66.145835"
   version="1.1"
   id="svg8"
   inkscape:export-filename="/home/baylinz/Development/sifriyah/assets/img/full-logo.png"
   inkscape:export-xdpi="210.39"
   inkscape:export-ydpi="210.39"
   inkscape:version="0.92.3 (2405546, 2018-03-11)"
   sodipodi:docname="full-logo.svg">
  <defs
     id="defs2" />
  <sodipodi:namedview
     id="base"
     pagecolor="#ffffff"
     bordercolor="#666666"
     borderopacity="1.0"
     inkscape:pageopacity="0.0"
     inkscape:pageshadow="2"
     inkscape:zoom="0.81454783"
     inkscape:cx="333.28554"
     inkscape:cy="273.72438"
     inkscape:document-units="mm"
     inkscape:current-layer="layer1"
     showgrid="false"
     units="px"
     showguides="false"
     inkscape:window-width="1920"
     inkscape:window-height="1020"
     inkscape:window-x="0"
     inkscape:window-y="27"
     inkscape:window-maximized="1" />
  <metadata
     id="metadata5">
    <rdf:RDF>
      <cc:Work
         rdf:about="">
        <dc:format>image/svg+xml</dc:format>
        <dc:type
           rdf:resource="http://purl.org/dc/dcmitype/StillImage" />
        <dc:title></dc:title>
      </cc:Work>
    </rdf:RDF>
  </metadata>
  <g
     inkscape:label="Layer 1"
     inkscape:groupmode="layer"
     id="layer1"
     transform="translate(0,-230.8875)">
    <text
       xml:space="preserve"
       style="font-style:normal;font-weight:normal;font-size:10.58333302px;line-height:1.25;font-family:sans-serif;letter-spacing:0px;word-spacing:0px;fill:#ffffff;fill-opacity:1;stroke:none;stroke-width:0.26458332;"
       x="71.146744"
       y="275.91986"
       id="text963"><tspan
         sodipodi:role="line"
         id="tspan961"
         x="71.146744"
         y="275.91986"
         style="font-style:normal;font-variant:normal;font-weight:300;font-stretch:normal;font-size:33.86666489px;font-family:'Proxima Soft';-inkscape-font-specification:'Proxima Soft Light';stroke-width:0.26458332;fill:#ffffff;">BookWorm</tspan></text>
    <g
       id="g1063"
       transform="matrix(0.12877146,0,0,0.12877146,1.5149487,224.08496)">
      <path
         id="path983"
         d="m 146.447,100.32 h 255.168 l 57.901,263.754 -21.206,0.114 -0.508,93.121 21.856,0.114 -0.143,15.561 H 114.584 C 81.938,470.37 84.85,410.49 83.104,394.462 l 29.062,-268.12 c 0.112,-11.915 12.126,-26.022 34.281,-26.022 z"
         style="fill:#0099ff"
         inkscape:connector-curvature="0" />
      <path
         id="path985"
         d="m 146.447,100.32 h 24.438 l -22.243,372.664 -38.143,-1.097 C 78.603,470.634 73.839,394.384 84.486,366.739 l 27.681,-240.398 c 0.112,-11.914 12.127,-26.021 34.28,-26.021 z"
         style="fill:#ff5b61"
         inkscape:connector-curvature="0" />
      <path
         id="path987"
         d="m 119.026,364.045 h 333.877 c -15.15,31.942 -14.757,63.443 0,94.526 H 119.026 c -35.815,10e-4 -35.81,-94.526 0,-94.526 z"
         style="fill:#ffffff"
         inkscape:connector-curvature="0" />
      <path
         id="path989"
         d="m 94.749,390.031 h 349.218 c -0.204,0.946 -0.392,1.893 -0.568,2.837 H 94.078 c 0.209,-0.957 0.429,-1.906 0.671,-2.837 z m 347.584,9.944 v 0 c -0.11,0.946 -0.204,1.892 -0.284,2.837 H 92.555 c 0.086,-0.951 0.194,-1.898 0.314,-2.837 z m -0.634,9.944 v 0 c -0.014,0.946 -0.014,1.891 0,2.837 H 92.184 c -0.014,-0.946 -0.014,-1.891 0,-2.837 z m 0.355,9.942 v 0 c 0.083,0.949 0.176,1.893 0.284,2.838 H 92.874 c -0.119,-0.941 -0.224,-1.888 -0.311,-2.838 z m 1.351,9.944 v 0 c 0.174,0.944 0.364,1.891 0.568,2.837 H 94.763 c -0.246,-0.934 -0.466,-1.88 -0.674,-2.837 z m 2.343,9.941 v 0 c 0.269,0.946 0.553,1.893 0.851,2.837 H 98.294 c -0.428,-0.916 -0.838,-1.865 -1.22,-2.837 z m 3.335,9.944 v 0 c 0.366,0.946 0.745,1.893 1.136,2.837 H 105.024 c -0.872,-0.866 -1.699,-1.816 -2.484,-2.837 z"
         style="fill:#ecf0f1"
         inkscape:connector-curvature="0" />
      <path
         id="path991"
         d="m 134.059,412.959 h 52.174 V 512 L 159.929,479.69 134.059,512 Z"
         style="fill:#ff5b61"
         inkscape:connector-curvature="0" />
      <path
         id="path993"
         d="m 153.961,383.864 h 268.909 15.333 7.269 c 1.809,-6.567 4.271,-13.148 7.401,-19.753 0.008,-0.021 0.02,-0.044 0.032,-0.065 H 429.04 155.145 119.024 c -33.139,0 -35.615,80.947 -7.417,93.027 -9.549,-27.879 -1.921,-73.209 22.878,-73.209 z"
         style="fill:#dfe1e3"
         inkscape:connector-curvature="0" />
      <g
         id="g999" />
      <g
         id="g1001" />
      <g
         id="g1003" />
      <g
         id="g1005" />
      <g
         id="g1007" />
      <g
         id="g1009" />
      <g
         id="g1011" />
      <g
         id="g1013" />
      <g
         id="g1015" />
      <g
         id="g1017" />
      <g
         id="g1019" />
      <g
         id="g1021" />
      <g
         id="g1023" />
      <g
         id="g1025" />
      <g
         id="g1027" />
      <g
         id="g1029" />
    </g>
    <g
       id="g1226"
       transform="matrix(0.05156406,0,0,0.05156406,26.121904,239.29567)">
      <path
         id="path1129"
         d="m 448,300.308 h -39.385 v -64 C 408.615,152.155 340.153,83.693 256,83.693 c -84.153,0 -152.615,68.462 -152.615,152.615 v 64 H 64 c -35.29,0 -64,28.71 -64,64 0,35.29 28.71,64 64,64 h 73.846 c 51.577,0 93.538,-41.961 93.538,-93.538 v -98.462 c 0,-13.573 11.042,-24.615 24.615,-24.615 13.573,0 24.615,11.042 24.615,24.615 v 98.462 c 0,51.577 41.961,93.538 93.538,93.538 H 448 c 35.29,0 64,-28.71 64,-64 0,-35.29 -28.71,-64 -64,-64 z"
         style="fill:#9ff257"
         inkscape:connector-curvature="0" />
      <path
         id="path1131"
         d="m 103.385,236.308 v 64 H 64 c -35.29,0 -64,28.71 -64,64 0,35.29 28.71,64 64,64 h 73.846 c 51.577,0 93.538,-41.961 93.538,-93.538 v -98.462 c 0,-13.573 11.042,-24.615 24.615,-24.615 v -128 C 171.847,83.692 103.385,152.155 103.385,236.308 Z"
         style="fill:#bcff7b"
         inkscape:connector-curvature="0" />
      <g
         id="g1137">
        <path
           id="path1133"
           d="m 443.077,388.923 c -0.482,0 -0.975,-0.021 -1.457,-0.069 -0.472,-0.049 -0.955,-0.128 -1.428,-0.217 -0.472,-0.099 -0.945,-0.217 -1.408,-0.354 -0.453,-0.147 -0.916,-0.305 -1.359,-0.492 -0.443,-0.186 -0.876,-0.393 -1.3,-0.62 -0.432,-0.225 -0.846,-0.472 -1.25,-0.738 -0.394,-0.266 -0.788,-0.551 -1.162,-0.857 -0.375,-0.305 -0.738,-0.639 -1.084,-0.975 -0.335,-0.345 -0.67,-0.709 -0.975,-1.083 -0.305,-0.374 -0.591,-0.768 -0.856,-1.162 -0.267,-0.404 -0.513,-0.817 -0.738,-1.251 -0.226,-0.423 -0.433,-0.857 -0.621,-1.299 -0.186,-0.443 -0.345,-0.907 -0.492,-1.36 -0.138,-0.463 -0.256,-0.934 -0.353,-1.408 -0.089,-0.472 -0.167,-0.955 -0.218,-1.428 -0.048,-0.482 -0.068,-0.974 -0.068,-1.456 0,-0.482 0.02,-0.965 0.068,-1.447 0.05,-0.482 0.129,-0.965 0.218,-1.439 0.098,-0.472 0.217,-0.945 0.353,-1.398 0.148,-0.463 0.306,-0.925 0.492,-1.369 0.187,-0.443 0.394,-0.876 0.621,-1.3 0.225,-0.432 0.472,-0.846 0.738,-1.25 0.266,-0.394 0.551,-0.788 0.856,-1.162 0.306,-0.375 0.64,-0.738 0.975,-1.084 0.346,-0.335 0.709,-0.67 1.084,-0.975 0.374,-0.305 0.758,-0.591 1.162,-0.856 0.404,-0.267 0.817,-0.513 1.241,-0.738 0.423,-0.226 0.866,-0.433 1.31,-0.621 0.443,-0.186 0.906,-0.345 1.359,-0.492 0.463,-0.138 0.935,-0.256 1.408,-0.353 0.473,-0.089 0.956,-0.167 1.428,-0.218 0.965,-0.098 1.95,-0.098 2.905,0 0.482,0.05 0.965,0.129 1.438,0.218 0.473,0.098 0.945,0.217 1.408,0.353 0.453,0.148 0.917,0.306 1.36,0.492 0.442,0.187 0.876,0.394 1.299,0.621 0.433,0.225 0.847,0.472 1.251,0.738 0.393,0.266 0.788,0.551 1.162,0.856 0.374,0.306 0.738,0.64 1.083,0.975 0.336,0.346 0.671,0.709 0.975,1.084 0.306,0.374 0.592,0.767 0.857,1.162 0.267,0.404 0.513,0.817 0.738,1.25 0.226,0.424 0.433,0.857 0.62,1.3 0.187,0.443 0.346,0.906 0.492,1.369 0.139,0.453 0.256,0.926 0.346,1.398 0.098,0.473 0.177,0.956 0.217,1.439 0.049,0.482 0.079,0.964 0.079,1.447 0,0.483 -0.03,0.975 -0.079,1.456 -0.039,0.473 -0.118,0.956 -0.217,1.428 -0.09,0.473 -0.207,0.945 -0.346,1.408 -0.147,0.453 -0.305,0.917 -0.492,1.36 -0.186,0.442 -0.393,0.876 -0.62,1.299 -0.225,0.433 -0.472,0.847 -0.738,1.251 -0.266,0.393 -0.551,0.788 -0.857,1.162 -0.305,0.374 -0.639,0.738 -0.975,1.083 -0.345,0.336 -0.709,0.671 -1.083,0.975 -0.374,0.306 -0.768,0.592 -1.162,0.857 -0.404,0.267 -0.817,0.513 -1.251,0.738 -0.423,0.226 -0.857,0.433 -1.299,0.62 -0.443,0.187 -0.907,0.346 -1.36,0.492 -0.463,0.139 -0.934,0.256 -1.408,0.354 -0.472,0.089 -0.955,0.167 -1.438,0.217 -0.484,0.049 -0.967,0.069 -1.449,0.069 z"
           style="fill:#45b67e"
           inkscape:connector-curvature="0" />
        <path
           id="path1135"
           d="m 408.615,241.232 h -54.152 c -8.157,0 -14.769,6.613 -14.769,14.769 0,8.157 6.613,14.769 14.769,14.769 h 54.152 z"
           style="fill:#45b67e"
           inkscape:connector-curvature="0" />
      </g>
      <path
         id="path1139"
         d="m 256,152.615 c -8.157,0 -14.769,-6.613 -14.769,-14.769 V 98.462 c 0,-8.157 6.613,-14.769 14.769,-14.769 8.156,0 14.769,6.613 14.769,14.769 v 39.385 c 0,8.156 -6.612,14.768 -14.769,14.768 z"
         style="fill:#ffae33"
         inkscape:connector-curvature="0" />
      <path
         id="path1141"
         d="m 256,83.692 c -4.983,0 -9.909,0.248 -14.771,0.718 v 53.436 c 0,8.157 6.613,14.769 14.769,14.769 8.157,0 14.769,-6.613 14.769,-14.769 V 84.409 C 265.906,83.94 260.982,83.692 256,83.692 Z"
         style="fill:#45b67e"
         inkscape:connector-curvature="0" />
      <path
         id="path1143"
         d="m 241.229,137.845 c 0,8.157 6.613,14.769 14.769,14.769 0.001,0 0.001,0 0.002,0 V 83.692 c -4.983,0 -9.909,0.248 -14.771,0.718 z"
         style="fill:#74dc83"
         inkscape:connector-curvature="0" />
      <path
         id="path1145"
         d="m 172.452,187.222 c -3.78,0 -7.56,-1.442 -10.443,-4.326 l -19.837,-19.837 c -5.768,-5.767 -5.768,-15.119 0,-20.887 5.767,-5.767 15.119,-5.767 20.887,0 l 19.837,19.837 c 5.768,5.767 5.768,15.119 0,20.887 -2.884,2.884 -6.664,4.326 -10.444,4.326 z"
         style="fill:#ffae33"
         inkscape:connector-curvature="0" />
      <path
         id="path1147"
         d="m 129.758,150.644 32.252,32.252 c 2.884,2.884 6.664,4.326 10.443,4.326 3.779,0 7.56,-1.442 10.443,-4.326 5.768,-5.767 5.768,-15.119 0,-20.887 l -34.157,-34.157 c -7.033,6.958 -13.397,14.588 -18.981,22.792 z"
         style="fill:#74dc83"
         inkscape:connector-curvature="0" />
      <path
         id="path1149"
         d="m 339.548,187.222 c -3.78,0 -7.56,-1.442 -10.443,-4.326 -5.768,-5.767 -5.768,-15.119 0,-20.887 l 22.299,-22.299 c 5.767,-5.767 15.119,-5.767 20.887,0 5.768,5.767 5.768,15.119 0,20.887 l -22.299,22.299 c -2.886,2.884 -6.665,4.326 -10.444,4.326 z"
         style="fill:#ffae33"
         inkscape:connector-curvature="0" />
      <path
         id="path1151"
         d="m 363.261,127.852 -34.157,34.157 c -5.768,5.767 -5.768,15.119 0,20.887 2.884,2.884 6.664,4.326 10.443,4.326 3.779,0 7.56,-1.442 10.443,-4.326 l 32.252,-32.252 c -5.584,-8.204 -11.948,-15.834 -18.981,-22.792 z"
         style="fill:#45b67e"
         inkscape:connector-curvature="0" />
      <g
         id="g1157">
        <path
           id="path1153"
           d="m 157.539,241.232 h -54.155 v 29.538 h 54.155 c 8.157,0 14.769,-6.613 14.769,-14.769 0.001,-8.157 -6.612,-14.769 -14.769,-14.769 z"
           style="fill:#74dc83"
           inkscape:connector-curvature="0" />
        <path
           id="path1155"
           d="m 88.611,369.229 c 8.157,0 14.769,-6.613 14.769,-14.769 V 300.308 H 73.842 v 54.152 c 0,8.156 6.613,14.769 14.769,14.769 z"
           style="fill:#74dc83"
           inkscape:connector-curvature="0" />
      </g>
      <g
         id="g1159" />
      <g
         id="g1161" />
      <g
         id="g1163" />
      <g
         id="g1165" />
      <g
         id="g1167" />
      <g
         id="g1169" />
      <g
         id="g1171" />
      <g
         id="g1173" />
      <g
         id="g1175" />
      <g
         id="g1177" />
      <g
         id="g1179" />
      <g
         id="g1181" />
      <g
         id="g1183" />
      <g
         id="g1185" />
      <g
         id="g1187" />
    </g>
  </g>
</svg>
